P3
50 33
255
127 179 255
127 179 255
127 179 255
127 179 255
127 179 255
127 179 255
127 179 255
127 179 255
127 179 255
127 179 255
127 179 255
127 179 255
127 179 255
127 179 255
127 179 255
127 179 255
127 179 255
127 179 255
127 179 255
127 179 255
127 179 255
127 179 255
127 179 255
127 179 255
127 179 255
127 179 255
127 179 255
127 179 255
127 179 255
127 179 255
127 179 255
127 179 255
127 179 255
127 179 255
127 179 255
127 179 255
127 179 255
127 179 255
127 179 255
127 179 255
127 179 255
127 179 255
127 179 255
127 179 255
127 179 255
127 179 255
127 179 255
127 179 255
127 179 255
127 179 255
127 179 255
127 179 255
127 179 255
127 179 255
127 179 255
127 179 255
127 179 255
127 179 255
127 179 255
127 179 255
127 179 255
127 179 255
127 179 255
127 179 255
127 179 255
127 179 255
127 179 255
127 179 255
127 179 255
127 179 255
127 179 255
127 179 255
127 179 255
127 179 255
127 179 255
127 179 255
127 179 255
127 179 255
127 179 255
127 179 255
127 179 255
127 179 255
127 179 255
127 179 255
127 179 255
127 179 255
127 179 255
127 179 255
127 179 255
127 179 255
127 179 255
127 179 255
127 179 255
127 179 255
127 179 255
127 179 255
127 179 255
127 179 255
127 179 255
127 179 255
127 179 255
127 179 255
127 179 255
127 179 255
127 179 255
127 179 255
127 179 255
127 179 255
127 179 255
127 179 255
127 179 255
127 179 255
127 179 255
127 179 255
127 179 255
127 179 255
127 179 255
127 179 255
127 179 255
127 179 255
127 179 255
127 179 255
127 179 255
127 179 255
127 179 255
127 179 255
127 179 255
127 179 255
127 179 255
127 179 255
127 179 255
127 179 255
127 179 255
127 179 255
127 179 255
127 179 255
127 179 255
127 179 255
127 179 255
127 179 255
127 179 255
127 179 255
127 179 255
127 179 255
127 179 255
127 179 255
127 179 255
127 179 255
127 179 255
127 179 255
127 179 255
127 179 255
127 179 255
127 179 255
127 179 255
127 179 255
127 179 255
127 179 255
127 179 255
127 179 255
127 179 255
127 179 255
127 179 255
127 179 255
127 179 255
127 179 255
127 179 255
127 179 255
127 179 255
127 179 255
127 179 255
127 179 255
127 179 255
127 179 255
127 179 255
127 179 255
127 179 255
127 179 255
127 179 255
127 179 255
127 179 255
127 179 255
127 179 255
127 179 255
127 179 255
127 179 255
127 179 255
127 179 255
127 179 255
127 179 255
127 179 255
127 179 255
127 179 255
127 179 255
127 179 255
127 179 255
127 179 255
127 179 255
127 179 255
127 179 255
127 179 255
127 179 255
127 179 255
127 179 255
127 179 255
127 179 255
127 179 255
127 179 255
127 179 255
127 179 255
127 179 255
127 179 255
127 179 255
127 179 255
127 179 255
127 179 255
127 179 255
127 179 255
127 179 255
127 179 255
127 179 255
127 179 255
127 179 255
127 179 255
127 179 255
127 179 255
127 179 255
127 179 255
127 179 255
127 179 255
127 179 255
11 166 167
127 179 255
127 179 255
127 179 255
127 179 255
127 179 255
127 179 255
127 179 255
127 179 255
127 179 255
127 179 255
127 179 255
127 179 255
127 179 255
127 179 255
127 179 255
127 179 255
127 179 255
127 179 255
127 179 255
127 179 255
127 179 255
127 179 255
127 179 255
127 179 255
127 179 255
127 179 255
127 179 255
127 179 255
127 179 255
127 179 255
127 179 255
127 179 255
127 179 255
127 179 255
127 179 255
127 179 255
127 179 255
127 179 255
127 179 255
127 179 255
127 179 255
127 179 255
127 179 255
127 179 255
127 179 255
127 179 255
127 179 255
127 179 255
127 179 255
11 165 165
127 179 255
127 179 255
127 179 255
127 179 255
127 179 255
127 179 255
127 179 255
127 179 255
127 179 255
127 179 255
127 179 255
127 179 255
127 179 255
127 179 255
127 179 255
127 179 255
127 179 255
127 179 255
127 179 255
127 179 255
127 179 255
127 179 255
127 179 255
127 179 255
127 179 255
127 179 255
127 179 255
127 179 255
127 179 255
127 179 255
127 179 255
127 179 255
127 179 255
127 179 255
127 179 255
127 179 255
127 179 255
127 179 255
127 179 255
127 179 255
127 179 255
127 179 255
127 179 255
127 179 255
127 179 255
127 179 255
127 179 255
127 179 255
127 179 255
11 163 163
127 179 255
127 179 255
127 179 255
127 179 255
127 179 255
127 179 255
127 179 255
127 179 255
127 179 255
127 179 255
127 179 255
127 179 255
127 179 255
127 179 255
127 179 255
127 179 255
127 179 255
127 179 255
127 179 255
127 179 255
127 179 255
127 179 255
127 179 255
127 179 255
127 179 255
127 179 255
127 179 255
127 179 255
127 179 255
127 179 255
127 179 255
127 179 255
127 179 255
127 179 255
127 179 255
127 179 255
127 179 255
127 179 255
127 179 255
127 179 255
127 179 255
127 179 255
127 179 255
127 179 255
127 179 255
127 179 255
127 179 255
127 179 255
127 179 255
11 161 162
127 179 255
127 179 255
127 179 255
127 179 255
127 179 255
127 179 255
127 179 255
127 179 255
127 179 255
127 179 255
127 179 255
127 179 255
127 179 255
127 179 255
127 179 255
127 179 255
127 179 255
127 179 255
127 179 255
127 179 255
127 179 255
127 179 255
127 179 255
127 179 255
127 179 255
127 179 255
127 179 255
127 179 255
127 179 255
127 179 255
127 179 255
127 179 255
127 179 255
127 179 255
127 179 255
127 179 255
127 179 255
127 179 255
127 179 255
127 179 255
127 179 255
127 179 255
127 179 255
127 179 255
127 179 255
127 179 255
127 179 255
127 179 255
127 179 255
11 159 160
11 159 159
127 179 255
127 179 255
127 179 255
127 179 255
127 179 255
127 179 255
127 179 255
127 179 255
127 179 255
127 179 255
127 179 255
127 179 255
127 179 255
127 179 255
127 179 255
127 179 255
127 179 255
127 179 255
127 179 255
127 179 255
127 179 255
127 179 255
127 179 255
127 179 255
127 179 255
127 179 255
127 179 255
127 179 255
127 179 255
127 179 255
127 179 255
127 179 255
127 179 255
127 179 255
127 179 255
127 179 255
127 179 255
127 179 255
127 179 255
127 179 255
127 179 255
127 179 255
127 179 255
127 179 255
127 179 255
127 179 255
127 179 255
127 179 255
10 157 158
10 157 157
127 179 255
127 179 255
127 179 255
127 179 255
127 179 255
127 179 255
127 179 255
127 179 255
127 179 255
127 179 255
127 179 255
127 179 255
127 179 255
127 179 255
127 179 255
127 179 255
127 179 255
127 179 255
127 179 255
127 179 255
127 179 255
127 179 255
127 179 255
127 179 255
127 179 255
127 179 255
127 179 255
127 179 255
127 179 255
127 179 255
127 179 255
127 179 255
127 179 255
127 179 255
127 179 255
127 179 255
127 179 255
127 179 255
127 179 255
127 179 255
127 179 255
127 179 255
127 179 255
127 179 255
127 179 255
127 179 255
127 179 255
127 179 255
10 155 155
10 155 155
127 179 255
127 179 255
127 179 255
127 179 255
127 179 255
127 179 255
127 179 255
127 179 255
127 179 255
127 179 255
127 179 255
127 179 255
127 179 255
127 179 255
127 179 255
127 179 255
127 179 255
127 179 255
127 179 255
127 179 255
127 179 255
127 179 255
127 179 255
127 179 255
127 179 255
127 179 255
127 179 255
127 179 255
127 179 255
127 179 255
127 179 255
127 179 255
127 179 255
127 179 255
127 179 255
127 179 255
47 38 63
62 51 83
72 59 96
79 65 106
83 68 111
82 67 110
127 179 255
127 179 255
127 179 255
127 179 255
127 179 255
127 179 255
10 153 153
10 152 152
127 179 255
127 179 255
127 179 255
127 179 255
127 179 255
127 179 255
127 179 255
127 179 255
127 179 255
127 179 255
127 179 255
127 179 255
127 179 255
127 179 255
127 179 255
127 179 255
127 179 255
127 179 255
127 179 255
127 179 255
127 179 255
127 179 255
127 179 255
127 179 255
127 179 255
127 179 255
127 179 255
127 179 255
127 179 255
127 179 255
127 179 255
127 179 255
127 179 255
127 179 255
127 179 255
40 33 54
56 46 75
67 55 90
76 62 102
83 68 111
88 72 118
90 74 121
87 72 117
127 179 255
127 179 255
127 179 255
127 179 255
127 179 255
10 151 151
10 150 150
10 148 148
127 179 255
127 179 255
127 179 255
127 179 255
127 179 255
127 179 255
127 179 255
127 179 255
127 179 255
127 179 255
127 179 255
127 179 255
127 179 255
127 179 255
127 179 255
127 179 255
127 179 255
127 179 255
127 179 255
127 179 255
127 179 255
127 179 255
127 179 255
127 179 255
127 179 255
127 179 255
127 179 255
127 179 255
127 179 255
127 179 255
127 179 255
127 179 255
127 179 255
25 21 34
45 37 60
58 47 77
68 56 91
76 62 102
82 68 110
87 72 117
90 74 121
90 74 121
83 69 112
127 179 255
127 179 255
127 179 255
127 179 255
10 148 149
10 148 148
10 146 146
127 179 255
127 179 255
127 179 255
127 179 255
127 179 255
127 179 255
127 179 255
127 179 255
127 179 255
127 179 255
127 179 255
127 179 255
127 179 255
127 179 255
127 179 255
127 179 255
127 179 255
127 179 255
127 179 255
127 179 255
127 179 255
127 179 255
127 179 255
127 179 255
127 179 255
127 179 255
127 179 255
127 179 255
127 179 255
127 179 255
127 179 255
127 179 255
127 179 255
28 23 38
44 37 60
56 46 75
65 54 88
73 60 98
79 65 106
84 69 113
87 72 117
88 72 118
84 69 113
127 179 255
127 179 255
127 179 255
127 179 255
10 146 146
10 145 145
9 143 143
127 179 255
127 179 255
127 179 255
127 179 255
127 179 255
127 179 255
127 179 255
127 179 255
127 179 255
127 179 255
127 179 255
127 179 255
127 179 255
127 179 255
127 179 255
127 179 255
127 179 255
127 179 255
127 179 255
127 179 255
127 179 255
127 179 255
127 179 255
127 179 255
127 179 255
127 179 255
127 179 255
127 179 255
127 179 255
127 179 255
127 179 255
127 179 255
0 0 0
26 22 35
41 34 55
52 43 70
61 50 82
68 56 92
74 61 100
79 65 106
82 68 110
83 68 111
80 66 107
24 20 32
127 179 255
127 179 255
127 179 255
9 144 144
9 143 143
9 140 141
9 137 137
127 179 255
127 179 255
127 179 255
127 179 255
127 179 255
127 179 255
127 179 255
127 179 255
127 179 255
127 179 255
127 179 255
127 179 255
127 179 255
127 179 255
127 179 255
127 179 255
127 179 255
127 179 255
127 179 255
127 179 255
127 179 255
127 179 255
127 179 255
127 179 255
127 179 255
127 179 255
127 179 255
127 179 255
127 179 255
127 179 255
127 179 255
0 0 0
21 17 28
36 29 48
47 38 63
55 45 74
62 51 84
68 56 92
72 60 97
75 62 101
76 62 102
72 59 97
21 17 28
127 179 255
127 179 255
127 179 255
9 141 141
9 140 140
9 138 138
9 134 135
127 179 255
127 179 255
127 179 255
127 179 255
127 179 255
127 179 255
127 179 255
127 179 255
127 179 255
127 179 255
127 179 255
127 179 255
127 179 255
127 179 255
127 179 255
0 2 0
0 2 0
0 2 0
0 2 0
0 2 0
0 2 0
0 2 0
0 2 0
0 3 0
0 3 0
0 3 0
0 3 0
0 3 0
0 3 0
0 3 0
0 4 1
0 4 1
12 10 17
28 23 38
39 32 53
48 39 64
55 45 74
60 50 81
64 53 86
67 55 89
66 55 89
61 50 82
0 5 1
0 4 1
0 4 1
0 4 1
9 139 139
9 137 137
9 135 135
9 132 132
0 3 1
0 3 0
0 3 0
0 3 0
0 3 0
0 3 0
0 3 0
0 3 0
0 2 0
0 2 0
0 2 0
0 2 0
0 2 0
0 2 0
0 2 0
1 11 2
1 11 2
1 11 3
1 12 3
1 12 3
1 13 3
1 13 3
1 14 3
1 14 3
1 15 3
1 15 4
1 16 4
1 17 4
1 17 4
1 18 4
1 18 4
0 7 2
0 0 0
18 14 24
30 24 40
38 32 52
45 37 61
51 42 68
54 45 73
56 46 75
54 44 73
45 37 60
2 23 6
2 23 5
2 23 5
2 22 5
9 136 137
9 135 135
9 132 132
8 129 129
1 19 4
1 18 4
1 18 4
1 17 4
1 16 4
1 16 4
1 15 4
1 15 3
1 14 3
1 14 3
1 13 3
1 13 3
1 12 3
1 12 3
1 11 3
1 19 4
1 20 5
1 20 5
1 21 5
2 22 5
2 22 5
2 23 5
2 24 6
2 25 6
2 25 6
2 26 6
2 27 7
2 28 7
2 29 7
1 12 3
1 12 3
1 13 3
1 13 3
2 1 2
16 13 22
26 22 35
33 27 45
38 32 52
41 34 55
41 34 56
36 30 49
3 40 10
3 40 10
3 39 10
3 39 10
3 38 9
9 134 134
9 132 132
9 130 130
8 126 126
8 121 121
3 33 8
2 32 8
2 31 7
2 30 7
2 29 7
2 28 7
2 27 6
2 26 6
2 25 6
2 24 6
2 23 6
2 23 5
2 22 5
1 21 5
2 27 6
2 27 7
2 28 7
2 29 7
2 30 7
2 31 7
2 32 8
3 33 8
3 34 8
3 35 9
3 36 9
3 37 9
3 38 9
3 40 10
1 16 4
1 17 4
1 17 4
1 18 4
1 18 4
0 0 0
8 7 11
16 14 22
21 17 29
23 19 30
18 15 25
4 53 13
4 53 13
76 1 21
159 2 45
76 1 21
4 52 13
9 132 132
9 130 130
8 127 127
8 123 123
8 118 118
4 46 11
4 45 11
4 43 11
3 42 10
3 41 10
3 40 10
3 38 9
3 37 9
3 36 9
3 35 8
3 34 8
3 33 8
2 32 8
2 31 7
3 33 8
3 34 8
3 35 9
3 36 9
3 37 9
3 38 9
3 40 10
3 41 10
3 42 10
3 43 11
4 44 11
4 46 11
4 47 12
1 19 5
1 20 5
1 20 5
1 21 5
2 21 5
2 22 5
2 23 5
2 23 6
0 9 2
0 9 2
2 25 6
2 25 6
5 64 16
5 64 16
58 0 16
138 2 39
70 1 20
51 0 14
8 129 129
8 127 127
8 124 125
8 121 121
8 115 115
5 58 14
5 56 14
5 55 14
4 54 13
4 52 13
4 51 13
4 49 12
4 48 12
4 46 11
4 45 11
4 44 11
3 42 10
3 41 10
3 40 10
3 40 10
3 41 10
3 42 10
3 43 11
4 44 11
4 45 11
4 47 11
4 48 12
4 49 12
4 50 12
4 52 13
4 53 13
5 55 14
5 56 14
2 23 5
2 23 6
2 24 6
2 25 6
2 25 6
2 26 6
2 26 6
1 11 2
2 28 7
2 28 7
2 28 7
2 29 7
2 29 7
0 0 0
83 1 23
49 0 13
6 73 18
8 127 127
8 125 125
8 122 122
8 118 118
7 113 113
7 106 106
6 67 17
6 65 16
5 64 16
5 62 16
5 61 15
5 59 15
5 58 14
5 56 14
5 55 14
4 53 13
4 52 13
4 50 12
4 49 12
4 46 11
4 47 12
4 48 12
4 49 12
4 50 12
4 51 13
4 53 13
4 54 13
5 55 14
5 57 14
5 58 15
5 60 15
5 61 15
5 63 16
5 65 16
2 26 6
2 27 6
2 27 7
2 28 7
2 29 7
2 29 7
6 75 19
1 12 3
2 31 7
2 31 8
2 32 8
2 32 8
2 32 8
2 32 8
7 81 20
7 81 20
8 125 125
8 122 122
8 119 119
8 115 115
7 110 110
7 103 103
6 76 19
6 74 19
6 73 18
6 71 18
6 70 17
6 68 17
6 67 17
6 65 16
5 64 16
5 62 15
5 60 15
5 59 15
5 57 14
4 51 13
4 52 13
4 53 13
5 54 13
5 56 14
5 57 14
5 58 14
5 60 15
5 61 15
5 63 16
5 64 16
6 66 16
6 67 17
6 69 17
6 70 18
6 72 18
6 73 18
6 75 19
7 77 19
7 78 20
7 80 20
7 81 20
1 13 3
1 13 3
3 34 8
3 34 8
3 34 8
3 35 8
3 35 8
3 35 9
3 35 9
8 122 123
8 120 120
8 117 117
7 113 113
7 107 107
7 101 101
7 83 21
7 82 21
7 81 20
7 79 20
7 78 19
7 76 19
6 75 19
6 73 18
6 72 18
6 70 17
6 68 17
6 67 17
6 65 16
5 56 14
5 57 14
5 58 14
5 59 15
5 61 15
5 62 15
5 63 16
5 65 16
6 66 16
6 68 17
6 69 17
6 71 18
6 72 18
6 74 18
6 75 19
7 77 19
7 78 20
7 80 20
7 81 20
7 83 21
7 84 21
7 86 22
3 35 8
1 14 3
3 36 9
3 36 9
3 36 9
3 37 9
3 37 9
3 37 9
3 37 9
8 120 120
8 118 118
7 114 114
7 110 110
7 105 105
6 98 98
8 90 23
8 89 22
8 88 22
7 86 22
7 85 21
7 84 21
7 82 21
7 81 20
7 79 20
7 77 19
6 76 19
6 74 19
6 73 18
5 60 15
5 61 15
5 62 16
5 64 16
5 65 16
6 66 17
6 68 17
6 69 17
6 70 18
6 72 18
6 73 18
6 75 19
7 76 19
7 78 20
7 80 20
7 81 20
7 83 21
7 84 21
7 86 21
8 87 22
8 89 22
8 90 23
8 91 23
3 37 9
3 37 9
3 38 9
3 38 9
3 38 9
3 38 9
3 39 9
3 39 10
8 118 118
8 115 115
7 112 112
7 108 108
7 102 102
6 96 96
8 95 24
8 94 24
8 93 23
8 92 23
8 91 23
8 90 23
8 88 22
8 87 22
7 85 21
7 84 21
7 82 21
7 81 20
7 79 20
5 64 16
5 65 16
6 66 17
6 68 17
6 69 17
6 70 18
6 72 18
6 73 18
6 74 19
6 76 19
7 77 19
7 79 20
7 80 20
7 82 20
7 83 21
7 85 21
7 86 22
8 88 22
8 89 22
8 91 23
8 92 23
8 93 23
8 95 24
8 96 24
3 39 9
3 39 10
3 39 10
3 40 10
3 40 10
3 40 10
3 40 10
8 116 116
7 113 113
7 110 110
7 105 105
6 100 100
6 93 93
9 100 25
9 99 25
9 98 25
8 97 24
8 96 24
8 95 24
8 94 24
8 93 23
8 91 23
8 90 23
8 88 22
7 87 22
7 85 21
6 67 17
6 69 17
6 70 17
6 71 18
6 72 18
6 74 18
6 75 19
7 77 19
7 78 19
7 79 20
7 81 20
7 82 21
7 84 21
7 85 21
7 87 22
8 88 22
8 90 22
8 91 23
8 92 23
8 94 24
8 95 24
8 96 24
8 98 25
9 99 25
3 40 10
3 40 10
3 40 10
3 41 10
3 41 10
3 41 10
3 41 10
7 114 114
7 111 111
7 107 107
7 103 103
6 98 98
9 104 26
9 104 26
9 103 26
9 103 26
9 102 26
9 101 25
9 100 25
9 99 25
8 98 24
8 96 24
8 95 24
8 94 23
8 92 23
8 91 23
6 71 18
6 72 18
6 73 18
6 74 19
6 76 19
7 77 19
7 78 20
7 80 20
7 81 20
7 82 21
7 84 21
7 85 21
7 87 22
8 88 22
8 90 22
8 91 23
8 92 23
8 94 24
8 95 24
8 96 24
8 98 25
9 99 25
9 100 25
9 101 25
9 102 26
3 41 10
3 41 10
3 42 10
3 42 10
3 42 10
3 43 10
7 112 112
7 109 109
7 105 105
7 101 101
6 95 95
9 108 27
9 107 27
9 107 27
9 106 27
9 106 27
9 105 26
9 104 26
9 103 26
9 102 26
9 101 25
9 99 25
9 98 25
8 97 24
8 96 24
6 74 18
6 75 19
7 76 19
7 77 19
7 79 20
7 80 20
7 81 20
7 83 21
7 84 21
7 85 21
7 87 22
8 88 22
8 89 22
8 91 23
8 92 23
8 94 23
8 95 24
8 96 24
8 98 24
9 99 25
9 100 25
9 101 25
9 102 26
9 104 26
9 105 26
3 42 10
3 42 10
3 43 11
3 43 11
3 43 11
4 43 11
7 110 110
7 107 107
7 103 103
6 99 99
6 93 93
10 110 28
10 110 28
10 110 28
10 109 27
9 109 27
9 108 27
9 107 27
9 106 27
9 106 27
9 105 26
9 103 26
9 102 26
9 101 25
9 100 25
7 77 19
7 78 19
7 79 20
7 80 20
7 81 20
7 83 21
7 84 21
7 85 21
7 87 22
8 88 22
8 89 22
8 90 23
8 92 23
8 93 23
8 94 24
8 96 24
8 97 24
9 98 25
9 100 25
9 101 25
9 102 26
9 103 26
9 104 26
9 106 27
9 107 27
9 108 27
3 43 11
4 43 11
4 44 11
4 44 11
4 44 11
7 108 108
7 105 105
7 101 101
6 96 96
10 113 28
10 113 28
10 112 28
10 112 28
10 112 28
10 111 28
10 111 28
10 110 28
10 110 28
9 109 27
9 108 27
9 107 27
9 106 27
9 105 26
9 104 26
7 79 20
7 80 20
7 81 20
7 83 21
7 84 21
7 85 21
7 86 22
8 88 22
8 89 22
8 90 23
8 91 23
8 93 23
8 94 24
8 95 24
8 97 24
8 98 25
9 99 25
9 100 25
9 102 26
9 103 26
9 104 26
9 105 26
9 106 27
9 107 27
9 108 27
10 109 27
4 44 11
4 44 11
4 44 11
4 45 11
4 45 11
7 106 106
7 103 103
6 99 99
6 94 94
10 115 29
10 115 29
10 115 29
10 114 29
10 114 29
10 114 29
10 113 29
10 113 28
10 112 28
10 112 28
10 111 28
10 110 28
10 109 27
9 108 27
9 107 27
