P3
50 33
255
127 179 255
127 179 255
127 179 255
127 179 255
127 179 255
127 179 255
127 179 255
127 179 255
127 179 255
127 179 255
127 179 255
127 179 255
127 179 255
127 179 255
127 179 255
127 179 255
127 179 255
127 179 255
127 179 255
127 179 255
127 179 255
127 179 255
127 179 255
127 179 255
127 179 255
127 179 255
127 179 255
127 179 255
127 179 255
127 179 255
127 179 255
127 179 255
127 179 255
127 179 255
127 179 255
127 179 255
127 179 255
127 179 255
127 179 255
127 179 255
127 179 255
127 179 255
127 179 255
127 179 255
127 179 255
127 179 255
127 179 255
127 179 255
127 179 255
127 179 255
127 179 255
127 179 255
127 179 255
127 179 255
127 179 255
127 179 255
127 179 255
127 179 255
127 179 255
127 179 255
127 179 255
127 179 255
127 179 255
127 179 255
127 179 255
127 179 255
127 179 255
127 179 255
127 179 255
127 179 255
127 179 255
127 179 255
127 179 255
127 179 255
127 179 255
127 179 255
127 179 255
127 179 255
127 179 255
127 179 255
127 179 255
127 179 255
127 179 255
127 179 255
127 179 255
127 179 255
127 179 255
127 179 255
127 179 255
127 179 255
127 179 255
127 179 255
127 179 255
127 179 255
127 179 255
127 179 255
127 179 255
127 179 255
127 179 255
127 179 255
127 179 255
127 179 255
127 179 255
127 179 255
127 179 255
127 179 255
127 179 255
127 179 255
127 179 255
127 179 255
127 179 255
127 179 255
127 179 255
127 179 255
127 179 255
127 179 255
127 179 255
127 179 255
127 179 255
127 179 255
127 179 255
127 179 255
127 179 255
127 179 255
127 179 255
127 179 255
127 179 255
127 179 255
127 179 255
127 179 255
127 179 255
127 179 255
127 179 255
127 179 255
127 179 255
127 179 255
127 179 255
127 179 255
127 179 255
127 179 255
127 179 255
127 179 255
127 179 255
127 179 255
127 179 255
127 179 255
127 179 255
127 179 255
127 179 255
127 179 255
127 179 255
127 179 255
127 179 255
127 179 255
127 179 255
127 179 255
127 179 255
127 179 255
127 179 255
127 179 255
127 179 255
127 179 255
127 179 255
127 179 255
127 179 255
127 179 255
127 179 255
127 179 255
127 179 255
127 179 255
127 179 255
127 179 255
127 179 255
127 179 255
127 179 255
127 179 255
127 179 255
127 179 255
127 179 255
127 179 255
127 179 255
127 179 255
127 179 255
127 179 255
127 179 255
127 179 255
127 179 255
127 179 255
127 179 255
127 179 255
127 179 255
127 179 255
127 179 255
127 179 255
127 179 255
127 179 255
127 179 255
127 179 255
127 179 255
127 179 255
127 179 255
127 179 255
127 179 255
127 179 255
127 179 255
127 179 255
127 179 255
127 179 255
127 179 255
127 179 255
127 179 255
127 179 255
127 179 255
127 179 255
127 179 255
127 179 255
127 179 255
127 179 255
127 179 255
127 179 255
127 179 255
127 179 255
127 179 255
127 179 255
127 179 255
127 179 255
127 179 255
127 179 255
127 179 255
127 179 255
127 179 255
98 176 233
127 179 255
127 179 255
127 179 255
127 179 255
127 179 255
127 179 255
127 179 255
127 179 255
127 179 255
127 179 255
127 179 255
127 179 255
127 179 255
127 179 255
127 179 255
127 179 255
127 179 255
127 179 255
127 179 255
127 179 255
127 179 255
127 179 255
127 179 255
127 179 255
127 179 255
127 179 255
127 179 255
127 179 255
127 179 255
127 179 255
127 179 255
127 179 255
127 179 255
127 179 255
127 179 255
127 179 255
127 179 255
127 179 255
127 179 255
127 179 255
127 179 255
127 179 255
127 179 255
127 179 255
127 179 255
127 179 255
127 179 255
127 179 255
127 179 255
62 171 205
127 179 255
127 179 255
127 179 255
127 179 255
127 179 255
127 179 255
127 179 255
127 179 255
127 179 255
127 179 255
127 179 255
127 179 255
127 179 255
127 179 255
127 179 255
127 179 255
127 179 255
127 179 255
127 179 255
127 179 255
127 179 255
127 179 255
127 179 255
127 179 255
127 179 255
127 179 255
127 179 255
127 179 255
127 179 255
127 179 255
127 179 255
127 179 255
127 179 255
127 179 255
127 179 255
127 179 255
127 179 255
127 179 255
127 179 255
127 179 255
127 179 255
127 179 255
127 179 255
127 179 255
127 179 255
127 179 255
127 179 255
127 179 255
127 179 255
40 167 186
127 179 255
127 179 255
127 179 255
127 179 255
127 179 255
127 179 255
127 179 255
127 179 255
127 179 255
127 179 255
127 179 255
127 179 255
127 179 255
127 179 255
127 179 255
127 179 255
127 179 255
127 179 255
127 179 255
127 179 255
127 179 255
127 179 255
127 179 255
127 179 255
127 179 255
127 179 255
127 179 255
127 179 255
127 179 255
127 179 255
127 179 255
127 179 255
127 179 255
127 179 255
127 179 255
127 179 255
127 179 255
127 179 255
127 179 255
127 179 255
127 179 255
127 179 255
127 179 255
127 179 255
127 179 255
127 179 255
127 179 255
127 179 255
127 179 255
40 166 185
76 171 214
127 179 255
127 179 255
127 179 255
127 179 255
127 179 255
127 179 255
127 179 255
127 179 255
127 179 255
127 179 255
127 179 255
127 179 255
127 179 255
127 179 255
127 179 255
127 179 255
127 179 255
127 179 255
127 179 255
127 179 255
127 179 255
127 179 255
127 179 255
127 179 255
127 179 255
127 179 255
127 179 255
127 179 255
127 179 255
127 179 255
127 179 255
127 179 255
127 179 255
127 179 255
127 179 255
127 179 255
127 179 255
127 179 255
127 179 255
127 179 255
127 179 255
127 179 255
127 179 255
127 179 255
127 179 255
127 179 255
127 179 255
127 179 255
40 164 184
54 166 195
127 179 255
127 179 255
127 179 255
127 179 255
127 179 255
127 179 255
127 179 255
127 179 255
127 179 255
127 179 255
127 179 255
127 179 255
127 179 255
127 179 255
127 179 255
127 179 255
127 179 255
127 179 255
127 179 255
127 179 255
127 179 255
127 179 255
127 179 255
127 179 255
127 179 255
127 179 255
127 179 255
127 179 255
127 179 255
127 179 255
127 179 255
127 179 255
127 179 255
127 179 255
127 179 255
127 179 255
127 179 255
127 179 255
127 179 255
127 179 255
127 179 255
127 179 255
127 179 255
127 179 255
127 179 255
127 179 255
127 179 255
127 179 255
40 163 182
25 160 169
127 179 255
127 179 255
127 179 255
127 179 255
127 179 255
127 179 255
127 179 255
127 179 255
127 179 255
127 179 255
127 179 255
127 179 255
127 179 255
127 179 255
127 179 255
127 179 255
127 179 255
127 179 255
127 179 255
127 179 255
127 179 255
127 179 255
127 179 255
127 179 255
127 179 255
127 179 255
127 179 255
127 179 255
127 179 255
127 179 255
127 179 255
127 179 255
127 179 255
127 179 255
127 179 255
127 179 255
127 179 255
103 135 196
98 122 179
101 124 183
117 156 225
127 179 255
127 179 255
127 179 255
127 179 255
127 179 255
127 179 255
127 179 255
40 161 180
10 155 155
98 172 230
127 179 255
127 179 255
127 179 255
127 179 255
127 179 255
127 179 255
127 179 255
127 179 255
127 179 255
127 179 255
127 179 255
127 179 255
127 179 255
127 179 255
127 179 255
127 179 255
127 179 255
127 179 255
127 179 255
127 179 255
127 179 255
127 179 255
127 179 255
127 179 255
127 179 255
127 179 255
127 179 255
127 179 255
127 179 255
127 179 255
127 179 255
127 179 255
127 179 255
127 179 255
104 140 202
51 46 74
61 50 82
71 59 96
78 64 105
82 67 110
90 88 137
111 142 207
127 179 255
127 179 255
127 179 255
127 179 255
127 179 255
39 159 179
10 152 152
69 165 203
127 179 255
127 179 255
127 179 255
127 179 255
127 179 255
127 179 255
127 179 255
127 179 255
127 179 255
127 179 255
127 179 255
127 179 255
127 179 255
127 179 255
127 179 255
127 179 255
127 179 255
127 179 255
127 179 255
127 179 255
127 179 255
127 179 255
127 179 255
127 179 255
127 179 255
127 179 255
127 179 255
127 179 255
127 179 255
127 179 255
127 179 255
127 179 255
127 179 255
94 128 184
46 42 67
56 46 75
67 55 90
76 62 102
82 68 111
87 72 117
89 74 120
86 71 115
103 131 191
127 179 255
127 179 255
127 179 255
127 179 255
39 158 177
10 150 150
47 158 182
127 179 255
127 179 255
127 179 255
127 179 255
127 179 255
127 179 255
127 179 255
127 179 255
127 179 255
127 179 255
127 179 255
127 179 255
127 179 255
127 179 255
127 179 255
127 179 255
127 179 255
127 179 255
127 179 255
127 179 255
127 179 255
127 179 255
127 179 255
127 179 255
127 179 255
127 179 255
127 179 255
127 179 255
127 179 255
127 179 255
127 179 255
127 179 255
120 168 240
39 41 63
44 37 60
57 47 77
67 55 91
75 62 101
82 67 110
87 72 117
90 74 121
90 74 121
77 72 114
127 179 255
127 179 255
127 179 255
127 179 255
39 156 175
10 148 148
10 146 146
127 179 255
127 179 255
127 179 255
127 179 255
127 179 255
127 179 255
127 179 255
127 179 255
127 179 255
127 179 255
127 179 255
127 179 255
127 179 255
127 179 255
127 179 255
127 179 255
127 179 255
127 179 255
127 179 255
127 179 255
127 179 255
127 179 255
127 179 255
127 179 255
127 179 255
127 179 255
127 179 255
127 179 255
127 179 255
127 179 255
127 179 255
127 179 255
98 136 195
27 22 37
44 36 59
56 46 75
65 54 87
73 60 98
79 65 106
84 69 113
87 72 117
88 72 118
74 61 100
84 111 160
127 179 255
127 179 255
127 179 255
39 154 173
10 145 145
9 143 143
76 162 205
127 179 255
127 179 255
127 179 255
127 179 255
127 179 255
127 179 255
127 179 255
127 179 255
127 179 255
127 179 255
127 179 255
127 179 255
127 179 255
127 179 255
127 179 255
127 179 255
127 179 255
127 179 255
127 179 255
127 179 255
127 179 255
127 179 255
127 179 255
127 179 255
127 179 255
127 179 255
127 179 255
127 179 255
127 179 255
127 179 255
127 179 255
67 92 133
26 21 35
41 34 55
52 43 70
61 50 82
68 56 92
74 61 100
79 65 106
82 67 110
83 68 111
76 63 102
71 91 132
127 179 255
127 179 255
127 179 255
39 152 172
9 142 143
9 140 141
53 153 182
127 179 255
127 179 255
127 179 255
127 179 255
127 179 255
127 179 255
127 179 255
127 179 255
127 179 255
127 179 255
127 179 255
127 179 255
127 179 255
127 179 255
127 179 255
127 179 255
127 179 255
127 179 255
127 179 255
127 179 255
127 179 255
127 179 255
127 179 255
127 179 255
127 179 255
127 179 255
127 179 255
127 179 255
127 179 255
127 179 255
127 179 255
58 80 114
20 17 27
36 29 48
46 38 62
55 45 74
62 51 84
68 56 91
72 60 97
75 62 101
76 62 101
69 57 93
69 89 129
127 179 255
127 179 255
127 179 255
39 151 170
9 140 140
9 138 138
24 140 150
127 179 255
127 179 255
127 179 255
127 179 255
127 179 255
127 179 255
127 179 255
127 179 255
127 179 255
127 179 255
127 179 255
127 179 255
127 179 255
127 179 255
127 179 255
32 47 64
32 47 64
32 47 64
32 47 64
32 47 64
32 47 64
32 47 64
32 48 64
32 48 64
32 48 64
32 48 64
32 48 64
32 48 65
32 48 65
32 49 65
32 49 65
16 25 33
12 9 16
28 23 37
39 32 52
48 39 64
55 45 74
60 50 81
64 53 86
66 55 89
66 54 89
56 46 76
31 42 58
32 50 65
32 50 65
32 50 65
15 116 120
9 137 137
9 135 135
9 132 132
33 64 81
32 49 65
32 48 65
32 48 65
32 48 64
32 48 64
32 48 64
32 48 64
32 48 64
32 47 64
32 47 64
32 47 64
32 47 64
32 47 64
32 47 64
1 11 2
1 11 2
1 11 3
1 12 3
1 12 3
1 13 3
1 13 3
1 14 3
1 14 3
1 15 3
1 15 4
1 16 4
1 16 4
1 17 4
1 18 4
1 14 3
1 11 2
3 3 4
17 14 23
29 24 39
38 31 52
45 37 61
51 42 68
54 44 73
55 46 75
54 44 72
36 31 48
3 23 7
2 23 5
2 23 5
2 22 5
7 108 104
9 135 135
9 132 132
8 129 129
4 65 57
1 18 4
1 18 4
1 17 4
1 16 4
1 16 4
1 15 4
1 15 3
1 14 3
1 14 3
1 13 3
1 13 3
1 12 3
1 12 3
1 11 3
1 19 4
1 20 5
1 20 5
1 21 5
2 21 5
2 22 5
2 23 5
2 24 6
2 25 6
2 25 6
2 26 6
2 27 7
2 28 7
2 28 7
1 16 4
1 12 3
1 13 3
0 10 2
4 3 5
16 13 22
26 21 35
33 27 45
38 31 51
41 34 55
41 34 55
35 29 47
9 33 16
9 28 9
27 18 11
11 33 10
3 38 9
7 110 103
9 132 132
9 130 130
8 126 126
6 88 79
3 33 8
2 32 8
2 31 7
2 30 7
2 29 7
2 28 7
2 27 6
2 26 6
2 25 6
2 24 6
2 23 6
2 23 5
2 22 5
1 21 5
2 27 6
2 27 7
2 28 7
2 29 7
2 30 7
2 31 7
2 32 8
3 33 8
3 34 8
3 35 9
3 36 9
3 37 9
3 38 9
2 27 7
1 16 4
1 17 4
1 17 4
1 18 4
1 14 3
2 4 3
8 7 11
16 13 21
21 17 28
22 18 29
17 20 23
7 46 15
4 49 12
69 4 20
110 1 31
69 4 20
15 42 14
8 111 102
9 130 130
8 127 127
8 123 123
7 114 112
4 46 11
4 45 11
4 43 11
3 42 10
3 41 10
3 39 10
3 38 9
3 37 9
3 36 9
3 35 8
3 34 8
3 33 8
2 32 8
2 31 7
3 33 8
3 34 8
3 35 9
3 36 9
3 37 9
3 38 9
3 40 10
3 41 10
3 42 10
3 43 11
4 44 11
4 46 11
4 47 12
2 32 8
1 20 5
1 20 5
1 21 5
2 21 5
2 22 5
2 23 5
1 15 3
0 6 1
1 8 3
2 19 5
2 30 7
4 51 13
4 52 13
52 0 14
135 2 38
69 1 19
34 32 17
8 113 101
8 127 127
8 124 124
8 121 121
8 115 115
5 71 39
5 56 14
5 55 14
4 54 13
4 52 13
4 51 13
4 49 12
4 48 12
4 46 11
4 45 11
4 44 11
3 42 10
3 41 10
3 40 10
3 40 10
3 41 10
3 42 10
3 43 11
4 44 11
4 45 11
4 47 11
4 48 12
4 49 12
4 50 12
4 52 13
4 53 13
5 55 14
4 48 12
2 23 5
2 23 6
2 24 6
2 25 6
2 25 6
2 26 6
2 26 6
1 18 4
2 24 6
2 28 7
2 28 7
2 29 7
3 40 10
13 13 6
78 1 22
56 0 16
17 55 17
8 113 100
8 125 125
8 122 122
8 118 118
7 113 113
6 87 62
6 67 17
6 65 16
5 64 16
5 62 16
5 61 15
5 59 15
5 58 14
5 56 14
5 55 14
4 53 13
4 52 13
4 50 12
4 49 12
4 46 11
4 47 12
4 48 12
4 49 12
4 50 12
4 51 13
4 53 13
4 54 13
5 55 14
5 57 14
5 58 14
5 60 15
5 61 15
5 63 16
4 53 13
2 31 8
2 27 6
2 27 7
2 28 7
2 29 7
3 35 9
5 58 15
2 22 5
1 20 5
2 31 8
2 32 8
2 32 8
2 30 7
6 20 6
8 50 14
7 81 20
8 114 98
8 122 122
8 119 119
8 115 115
7 110 110
7 99 88
6 76 19
6 74 19
6 73 18
6 71 18
6 70 17
6 68 17
6 67 17
6 65 16
5 64 16
5 62 15
5 60 15
5 59 15
5 57 14
4 51 13
4 52 13
4 53 13
5 54 13
5 56 14
5 57 14
5 58 14
5 60 15
5 61 15
5 63 16
5 64 16
6 66 16
6 67 17
6 69 17
6 70 18
6 72 18
6 68 17
5 61 15
5 62 16
6 75 19
7 80 20
6 66 16
2 21 5
1 13 3
2 23 6
3 34 8
3 34 8
3 35 8
3 35 8
3 35 8
5 54 13
8 110 96
8 120 120
8 117 117
7 113 113
7 107 107
6 100 101
7 83 21
7 82 21
7 81 20
7 79 20
7 78 19
7 76 19
6 75 19
6 73 18
6 72 18
6 70 17
6 68 17
6 67 17
6 65 16
5 56 14
5 57 14
5 58 14
5 59 15
5 60 15
5 62 15
5 63 16
5 65 16
6 66 16
6 68 17
6 69 17
6 71 18
6 72 18
6 74 18
6 75 19
7 77 19
7 78 20
7 80 20
7 81 20
7 83 21
7 84 21
7 79 20
3 39 9
1 14 3
2 27 7
3 36 9
3 36 9
3 37 9
3 37 9
3 37 9
3 37 9
7 99 92
8 118 118
7 114 114
7 110 110
7 105 105
6 98 98
7 90 53
8 89 22
8 88 22
7 86 22
7 85 21
7 84 21
7 82 21
7 80 20
7 79 20
7 77 19
6 76 19
6 74 19
6 73 18
5 60 15
5 61 15
5 62 16
5 64 16
5 65 16
6 66 17
6 68 17
6 69 17
6 70 18
6 72 18
6 73 18
6 75 19
7 76 19
7 78 20
7 80 20
7 81 20
7 83 21
7 84 21
7 86 21
8 87 22
8 89 22
8 90 23
8 91 23
5 58 14
3 37 9
3 38 9
3 38 9
3 38 9
3 38 9
3 39 9
3 39 10
7 98 91
8 115 115
7 112 112
7 108 108
7 102 102
6 95 96
8 94 41
8 94 24
8 93 23
8 92 23
8 91 23
8 90 22
8 88 22
7 87 22
7 85 21
7 84 21
7 82 21
7 81 20
7 79 20
5 64 16
5 65 16
6 66 17
6 68 17
6 69 17
6 70 18
6 72 18
6 73 18
6 74 19
6 76 19
7 77 19
7 79 20
7 80 20
7 82 20
7 83 21
7 85 21
7 86 22
8 88 22
8 89 22
8 91 23
8 92 23
8 93 23
8 95 24
8 89 22
3 38 9
3 39 10
3 39 10
3 40 10
3 40 10
3 40 10
3 40 10
6 97 89
7 113 113
7 110 110
7 105 105
6 100 100
6 94 85
9 99 29
9 99 25
9 98 25
8 97 24
8 96 24
8 95 24
8 94 24
8 93 23
8 91 23
8 90 23
8 88 22
7 87 22
7 85 21
6 67 17
6 69 17
6 70 17
6 71 18
6 72 18
6 74 18
6 75 19
7 77 19
7 78 19
7 79 20
7 81 20
7 82 21
7 84 21
7 85 21
7 87 22
8 88 22
8 90 22
8 91 23
8 92 23
8 94 24
8 95 24
8 96 24
8 98 25
9 99 25
6 66 16
3 40 10
3 40 10
3 41 10
3 41 10
3 41 10
3 41 10
6 95 88
7 111 111
7 107 107
7 103 103
6 97 98
8 99 55
9 104 26
9 103 26
9 103 26
9 102 26
9 101 25
9 100 25
9 99 25
8 97 24
8 96 24
8 95 24
8 94 23
8 92 23
8 91 23
6 71 18
6 72 18
6 73 18
6 74 19
6 76 19
7 77 19
7 78 20
7 80 20
7 81 20
7 82 21
7 84 21
7 85 21
7 87 22
8 88 22
8 90 22
8 91 23
8 92 23
8 94 24
8 95 24
8 96 24
8 98 25
9 99 25
9 100 25
9 101 25
8 95 24
3 41 10
3 41 10
3 42 10
3 42 10
3 42 10
3 43 10
6 94 86
7 109 109
7 105 105
7 101 101
6 96 91
9 107 31
9 107 27
9 107 27
9 106 27
9 105 27
9 105 26
9 104 26
9 103 26
9 102 26
9 101 25
9 99 25
9 98 25
8 97 24
8 96 24
6 74 18
6 75 19
7 76 19
7 77 19
7 79 20
7 80 20
7 81 20
7 83 21
7 84 21
7 85 21
7 87 22
8 88 22
8 89 22
8 91 23
8 92 23
8 94 23
8 95 24
8 96 24
8 98 24
9 99 25
9 100 25
9 101 25
9 102 26
9 104 26
9 105 26
6 70 17
3 42 10
3 43 10
3 43 11
3 43 11
4 43 11
6 93 85
7 107 107
7 103 103
6 98 99
8 101 65
10 110 28
10 110 28
10 110 28
10 109 27
9 109 27
9 108 27
9 107 27
9 106 27
9 105 27
9 104 26
9 103 26
9 102 26
9 101 25
9 100 25
7 77 19
7 78 19
7 79 20
7 80 20
7 81 20
7 83 21
7 84 21
7 85 21
7 87 22
8 88 22
8 89 22
8 90 23
8 92 23
8 93 23
8 94 24
8 96 24
8 97 24
9 98 25
9 100 25
9 101 25
9 102 26
9 103 26
9 104 26
9 106 27
9 107 27
9 99 25
3 43 11
4 43 11
4 44 11
4 44 11
4 44 11
6 92 83
7 105 105
7 101 101
6 96 96
9 109 41
10 113 28
10 112 28
10 112 28
10 112 28
10 111 28
10 111 28
10 110 28
10 110 28
9 109 27
9 108 27
9 107 27
9 106 27
9 105 26
9 104 26
7 79 20
7 80 20
7 81 20
7 83 21
7 84 21
7 85 21
7 86 22
8 88 22
8 89 22
8 90 23
8 91 23
8 93 23
8 94 24
8 95 24
8 97 24
8 98 25
9 99 25
9 100 25
9 102 26
9 103 26
9 104 26
9 105 26
9 106 27
9 107 27
9 108 27
10 109 27
6 73 18
4 44 11
4 44 11
4 45 11
4 45 11
6 90 82
7 103 103
6 99 99
7 99 82
10 115 29
10 115 29
10 115 29
10 114 29
10 114 29
10 114 29
10 113 29
10 113 28
10 112 28
10 112 28
10 111 28
10 110 28
10 109 27
9 108 27
9 107 27
